<?xml version="1.0" encoding="utf-8"?>
<!-- Generator: Adobe Illustrator 17.0.0, SVG Export Plug-In . SVG Version: 6.00 Build 0)  -->
<!DOCTYPE svg PUBLIC "-//W3C//DTD SVG 1.1//EN" "http://www.w3.org/Graphics/SVG/1.1/DTD/svg11.dtd">
<svg version="1.1" id="图层_1" xmlns="http://www.w3.org/2000/svg" xmlns:xlink="http://www.w3.org/1999/xlink" x="0px" y="0px"
	 width="502px" height="164px" viewBox="44.14 333.445 502 164" enable-background="new 44.14 333.445 502 164"
	 xml:space="preserve">
<g id="cpPDa2.tif">
</g>
<g>
	<path fill="#E70010" d="M321.299,423.948v10.706H310.54c-3.134,0-5.797-0.313-7.886-0.888c-2.089-0.574-4.596-2.82-7.416-6.633
		l-17.235-23.136l-18.645,23.92c-1.88,2.35-3.499,3.969-4.962,4.753c-1.462,0.783-2.977,1.306-4.544,1.619
		c-1.567,0.261-4.544,0.418-8.879,0.418h-5.118v-10.498h2.611c3.343,0,5.849-0.261,7.364-0.783c1.567-0.522,2.768-1.358,3.551-2.507
		l19.324-27.367h-33.321v-10.498h35.149v-20.212h-35.619v-10.498h85.652v10.498h-36.663v20.212h36.663v10.498h-33.738l19.533,25.957
		c1.201,1.619,2.298,2.768,3.29,3.499c0.94,0.679,2.611,1.045,4.909,1.045h6.737V423.948z"/>
	<path fill="#E70010" d="M332.057,370.05v-15.407h35.828l0.209-6.372h12.534l0.104,6.372h35.828v15.25h-12.587v-6.006h-59.486v6.111
		h-12.43V370.05z M332.736,404.885h84.033v17.548c0,1.358-0.157,2.82-0.522,4.439c-0.366,1.619-1.045,2.977-2.089,4.126
		c-1.045,1.149-2.507,1.88-4.491,2.35c-1.932,0.418-3.604,0.627-4.962,0.627h-71.968V404.885z M339.056,400.446v-27.158h71.237
		v15.355c0,1.253-0.157,2.872-0.47,4.805s-1.201,3.604-2.664,4.962c-1.462,1.358-6.894,2.037-12.169,2.037
		C394.991,400.446,339.056,400.446,339.056,400.446z M404.182,414.129h-59.852v10.602h54.472c2.35,0,3.865-0.366,4.491-1.045
		c0.627-0.679,0.94-2.089,0.94-4.126v-5.432H404.182z M351.381,382.532v8.565h43.662c0.888,0,1.567-0.209,1.985-0.627
		c0.418-0.418,0.627-1.097,0.627-2.037v-5.954h-46.273V382.532z"/>
	<path fill="#E70010" d="M435.884,352.45h71.864v11.281h-71.864V352.45z M427.789,380.704h87.062v11.229h-52.227l-12.064,30.918
		h41.572c1.358,0,2.246-0.261,2.716-0.783l0,0c0.627-0.731,0.574-1.776-0.104-2.507l11.908-0.313
		c5.484-0.574,7.834,4.387,7.573,7.051c-0.052,0.418-0.157,0.992-0.366,1.619c-0.522,1.619-1.567,2.664-2.82,3.708
		c-1.097,0.888-2.872,1.619-5.223,1.985c-2.35,0.313-3.76,0.418-5.223,0.418h-65.44v-9.923l13.318-32.119h-20.682L427.789,380.704
		L427.789,380.704z"/>
</g>
<text transform="matrix(1 0 0 1 232.5289 482.5164)" fill="#E70010" font-family="'ArialMT'" font-size="40.5382">Tiangong Cloud</text>
<g>
	<g>
		<path fill="#E70010" d="M530.884,410.735c-3.917-0.052-10.341-1.41-15.929-0.261c-1.045,0.209-2.037,0.731-2.872,1.358
			c-0.261,0.157-0.574,0.47-0.574,0.679c0.052,0.313,0.522,0.47,0.992,0.313c0.783-0.261,3.29-1.045,4.074-1.253
			c1.358-0.366,3.081-0.313,3.081-0.313c-5.066,1.149-9.401,5.066-12.221,6.998c-2.35,1.619-5.118,1.932-7.938,1.358
			c-0.574-0.104-1.201-0.209-1.567,0.47c-2.768,4.962-9.714,4.857-13.579,0.209c-0.679-0.783-1.41-1.201-2.298-1.515
			c-2.455-0.992-3.917-2.716-4.074-5.17c-0.157-2.298,0.313-4.491,2.664-5.64c1.149-0.574,1.515-1.306,1.932-2.298
			c1.149-3.081,2.82-5.745,6.267-7.103c1.723-0.679,3.76-0.836,5.536-0.418c2.977,0.731,5.118,1.776,6.633,4.335
			c1.253,2.194,3.499,3.081,5.797,3.238c6.058,0.313,12.064,0.783,15.198,1.515c2.089,0.47,4.178,1.306,5.066,1.671
			c-0.992-0.418-5.379-0.94-6.946-1.045c-5.014-0.47-12.221,0.313-16.608,1.723c-1.828,0.574-4.021,1.149-5.954,0.94
			c-2.716-0.261-3.865-1.723-3.499-3.447c0.209-0.94,1.149-1.88,2.298-1.776c0.888,0.052,1.462,0.627,1.462,1.515
			c-0.052,1.045-1.097,2.037-1.932,1.201c0.731,0.731,2.141,0.783,2.977-0.209c0.731-0.836,0.731-2.455-0.366-3.342
			c-2.402-1.985-4.962-0.731-6.111,1.097c-1.149,1.932-0.783,4.962,1.41,6.267c2.664,1.567,6.006,1.149,8.513,0.157
			c3.708-1.41,10.968-3.447,14.989-3.499c3.499-0.052,7.782,0.888,11.229,1.515c0.47,0.104,4.439,0.731,6.006,0.731H530.884
			L530.884,410.735z"/>
	</g>
</g>
<path fill="#E70010" d="M123.807,344.494c0,0-19.167,15.535-20.5,16.201c1,1,20.833,15.75,20.833,15.75l20.5-15.976
	C144.64,360.469,125.807,345.876,123.807,344.494z"/>
<path fill="#E70010" d="M100.557,362.695c0,0-17,12.833-20.917,14.917c2.917,2.333,20.917,15.667,20.917,15.667l20.833-14.833
	L100.557,362.695z"/>
<path fill="#E70010" d="M76.807,379.445c0,0-18,12.083-22.917,14.333c2.583,1.167,22.333,12.917,23.417,13.75
	c1.333-0.5,20-12,20.25-12.417L76.807,379.445z"/>
<path fill="#E70010" d="M147.307,361.945c0,0,19.917,13.583,21.583,14.5c-0.333,0.417-20.5,16.083-20.5,16.083l-21.417-14.167
	L147.307,361.945z"/>
<path fill="#E70010" d="M171.807,377.987c0,0,15.75,9.875,23.167,13.708c-1.5,0.833-23.167,14.583-23.167,14.583l-20.417-12
	L171.807,377.987z"/>
<path fill="#E70010" d="M123.973,380.278c0,0,20.917,14.25,21.667,14.25c-0.417,0.167-20.917,14.75-20.917,14.75l-21.417-14
	L123.973,380.278z"/>
<polygon fill="#E70010" points="100.515,397.278 121.39,411.195 101.723,423.862 80.473,409.695 "/>
<path fill="#E70010" d="M124.473,413.028l21.167,12.083c0,0-15.917,11.833-20.417,16.167c-1.25-1-19.583-15.333-20.583-15.417
	C106.057,425.278,124.473,413.028,124.473,413.028z"/>
<path fill="#E70010" d="M148.557,396.278c0,0,19.083,11.75,20.333,12c-0.917,0.583-20.958,14.833-20.958,14.833l-20.208-11.833
	L148.557,396.278z"/>
<path fill="#E70010" d="M67.473,404.445c0,0,38.083,23,57.667,40c1.667-1.667,43.917-35.25,56.5-41.333
	c5.917,3.667,13.333,7.458,13.333,7.458s-48.833,30.708-69.833,49.625c-5-5.167-52.75-39.417-70.833-47.5
	C55.307,412.195,67.473,404.445,67.473,404.445z"/>
<path fill="#E70010" d="M195.557,429.195"/>
<path fill="#E70010" d="M195.557,429.195"/>
<path fill="#E70010" d="M67.807,423.862c0,0,42.833,24.75,57.333,39.417c5.167-4,49.5-38,57.667-41.333
	c5,3.333,12.75,7.25,12.75,7.25s-46.428,28.083-69.756,50.083c-7.994-7.833-60.161-43.583-71.494-47.625
	C58.391,429.715,67.807,423.862,67.807,423.862z"/>
</svg>
